<svg width="222" height="35" viewBox="0 0 222 35" fill="none" xmlns="http://www.w3.org/2000/svg">
<path d="M0.45 34L8.6 18.1L0.55 2.85H6.35L11.6 13.1L16.7 2.85H22.2L14.7 18.05L23.2 34H17.2L11.65 23.25L6.25 34H0.45ZM38.95 34.5C37.6167 34.5 36.45 34.2833 35.45 33.85C34.4833 33.4167 33.6667 32.7167 33 31.75C32.3667 30.7833 31.9 29.5 31.6 27.9C31.3333 26.3 31.25 24.3167 31.35 21.95L32 5.25L37.85 4.5L38.3 4.45L38.35 4.9C38.2167 5.13333 38.0833 5.36666 37.95 5.6C37.8167 5.83333 37.7333 6.23333 37.7 6.8L37.15 13.7L37.4 14.05L37 21.85C36.9 24.0167 36.9667 25.7 37.2 26.9C37.4667 28.0667 37.85 28.8667 38.35 29.3C38.8833 29.7333 39.5167 29.95 40.25 29.95C41.3167 29.95 42.2667 29.7333 43.1 29.3C43.9667 28.8667 44.7667 28.3667 45.5 27.8L46.7 31.9C45.5667 32.7333 44.35 33.3833 43.05 33.85C41.7833 34.2833 40.4167 34.5 38.95 34.5ZM26.95 10.75H44.85L44.8 15.2H26.85L26.95 10.75ZM53.45 10.75H59.3L59.25 17.25L58.6 16.85C58.7333 15.8167 59.0167 14.9 59.45 14.1C59.9167 13.3 60.4833 12.6 61.15 12C61.85 11.4 62.6 10.95 63.4 10.65C64.2333 10.35 65.0833 10.2 65.95 10.2C67.25 10.2 68.4167 10.4167 69.45 10.85C70.5167 11.25 71.5 11.9167 72.4 12.85L70 17.6L69.85 18L69.4 17.8C69.3 17.5333 69.2 17.2667 69.1 17C69 16.7 68.75 16.3667 68.35 16C67.8833 15.6333 67.3833 15.35 66.85 15.15C66.35 14.95 65.8 14.85 65.2 14.85C64.4 14.85 63.6333 14.9833 62.9 15.25C62.1667 15.5167 61.5167 15.9333 60.95 16.5C60.4167 17.0667 59.9833 17.8 59.65 18.7C59.35 19.5667 59.2 20.6 59.2 21.8V34H53.45V10.75ZM87.55 34.55C85.8833 34.55 84.3333 34.2833 82.9 33.75C81.5 33.2167 80.2667 32.45 79.2 31.45C78.1667 30.4167 77.3667 29.15 76.8 27.65C76.2333 26.15 75.95 24.45 75.95 22.55C75.95 20.6167 76.2333 18.8833 76.8 17.35C77.3667 15.8167 78.1333 14.5167 79.1 13.45C80.1 12.3833 81.2667 11.5833 82.6 11.05C83.9333 10.4833 85.3667 10.2 86.9 10.2C88.2667 10.2 89.55 10.4333 90.75 10.9C91.95 11.3667 93 12.0833 93.9 13.05C94.8333 13.9833 95.5667 15.1667 96.1 16.6C96.6333 18 96.9 19.6333 96.9 21.5C96.9 21.8333 96.8833 22.2333 96.85 22.7C96.85 23.1667 96.8333 23.5667 96.8 23.9H81.4C81.4667 25 81.6833 25.95 82.05 26.75C82.4167 27.5167 82.9 28.15 83.5 28.65C84.1 29.15 84.7667 29.5333 85.5 29.8C86.2333 30.0333 87 30.15 87.8 30.15C88.5 30.15 89.1667 30.0833 89.8 29.95C90.4667 29.8167 91.0833 29.5833 91.65 29.25C92.25 28.9167 92.8167 28.4833 93.35 27.95L96.25 30.75C95.5167 31.6167 94.6833 32.35 93.75 32.95C92.85 33.5167 91.8667 33.9167 90.8 34.15C89.7667 34.4167 88.6833 34.55 87.55 34.55ZM81.5 19.65H91.4C91.4 18.85 91.2833 18.1333 91.05 17.5C90.85 16.8667 90.55 16.3333 90.15 15.9C89.75 15.4667 89.25 15.15 88.65 14.95C88.0833 14.7167 87.4167 14.6 86.65 14.6C86.0167 14.6 85.4 14.7 84.8 14.9C84.2333 15.0667 83.7167 15.3667 83.25 15.8C82.7833 16.2333 82.4 16.7667 82.1 17.4C81.8 18.0333 81.6 18.7833 81.5 19.65ZM100.5 34V10.75H105.25V12.45C105.65 11.9167 106.067 11.4833 106.5 11.15C106.933 10.8167 107.383 10.5833 107.85 10.45C108.35 10.2833 108.833 10.2 109.3 10.2C109.867 10.2 110.4 10.3 110.9 10.5C111.4 10.6667 111.85 10.9667 112.25 11.4C112.683 11.8 113.017 12.3333 113.25 13C113.617 12.3667 114.033 11.85 114.5 11.45C114.967 11.0167 115.5 10.7 116.1 10.5C116.733 10.3 117.417 10.2 118.15 10.2C119.017 10.2 119.75 10.35 120.35 10.65C120.95 10.95 121.433 11.3833 121.8 11.95C122.2 12.5167 122.483 13.2167 122.65 14.05C122.817 14.8833 122.9 15.8167 122.9 16.85V34H118V18.05C118 17.05 117.95 16.2833 117.85 15.75C117.75 15.1833 117.6 14.8 117.4 14.6C117.2 14.3667 116.933 14.25 116.6 14.25C116.167 14.25 115.75 14.4667 115.35 14.9C114.95 15.3 114.617 15.8667 114.35 16.6C114.117 17.3 114 18.1333 114 19.1V34H109.4V18.2C109.4 16.6 109.283 15.5333 109.05 15C108.817 14.4667 108.383 14.2 107.75 14.2C107.45 14.2 107.15 14.3 106.85 14.5C106.583 14.7 106.333 15 106.1 15.4C105.9 15.7667 105.733 16.25 105.6 16.85C105.467 17.4167 105.4 18.0667 105.4 18.8V34H100.5ZM137.55 34.55C135.883 34.55 134.333 34.2833 132.9 33.75C131.5 33.2167 130.267 32.45 129.2 31.45C128.167 30.4167 127.367 29.15 126.8 27.65C126.233 26.15 125.95 24.45 125.95 22.55C125.95 20.6167 126.233 18.8833 126.8 17.35C127.367 15.8167 128.133 14.5167 129.1 13.45C130.1 12.3833 131.267 11.5833 132.6 11.05C133.933 10.4833 135.367 10.2 136.9 10.2C138.267 10.2 139.55 10.4333 140.75 10.9C141.95 11.3667 143 12.0833 143.9 13.05C144.833 13.9833 145.567 15.1667 146.1 16.6C146.633 18 146.9 19.6333 146.9 21.5C146.9 21.8333 146.883 22.2333 146.85 22.7C146.85 23.1667 146.833 23.5667 146.8 23.9H131.4C131.467 25 131.683 25.95 132.05 26.75C132.417 27.5167 132.9 28.15 133.5 28.65C134.1 29.15 134.767 29.5333 135.5 29.8C136.233 30.0333 137 30.15 137.8 30.15C138.5 30.15 139.167 30.0833 139.8 29.95C140.467 29.8167 141.083 29.5833 141.65 29.25C142.25 28.9167 142.817 28.4833 143.35 27.95L146.25 30.75C145.517 31.6167 144.683 32.35 143.75 32.95C142.85 33.5167 141.867 33.9167 140.8 34.15C139.767 34.4167 138.683 34.55 137.55 34.55ZM131.5 19.65H141.4C141.4 18.85 141.283 18.1333 141.05 17.5C140.85 16.8667 140.55 16.3333 140.15 15.9C139.75 15.4667 139.25 15.15 138.65 14.95C138.083 14.7167 137.417 14.6 136.65 14.6C136.017 14.6 135.4 14.7 134.8 14.9C134.233 15.0667 133.717 15.3667 133.25 15.8C132.783 16.2333 132.4 16.7667 132.1 17.4C131.8 18.0333 131.6 18.7833 131.5 19.65ZM152.3 34V2.85H171.7V7.4H157.35V14.95H169V19.5H157.35V34H152.3ZM178.2 34V29.55H183.9V15.2H178.5V10.75H189.6V29.55H194.8V34H178.2ZM186.5 6.9C185.533 6.9 184.7 6.56666 184 5.9C183.3 5.23333 182.95 4.43333 182.95 3.5C182.95 2.5 183.283 1.68333 183.95 1.05C184.617 0.416665 185.467 0.0999984 186.5 0.0999984C187.433 0.0999984 188.25 0.433331 188.95 1.1C189.683 1.76667 190.05 2.56667 190.05 3.5C190.05 4.43333 189.683 5.23333 188.95 5.9C188.25 6.56666 187.433 6.9 186.5 6.9ZM213.95 34.5C212.617 34.5 211.45 34.2833 210.45 33.85C209.483 33.4167 208.667 32.7167 208 31.75C207.367 30.7833 206.9 29.5 206.6 27.9C206.333 26.3 206.25 24.3167 206.35 21.95L207 5.25L212.85 4.5L213.3 4.45L213.35 4.9C213.217 5.13333 213.083 5.36666 212.95 5.6C212.817 5.83333 212.733 6.23333 212.7 6.8L212.15 13.7L212.4 14.05L212 21.85C211.9 24.0167 211.967 25.7 212.2 26.9C212.467 28.0667 212.85 28.8667 213.35 29.3C213.883 29.7333 214.517 29.95 215.25 29.95C216.317 29.95 217.267 29.7333 218.1 29.3C218.967 28.8667 219.767 28.3667 220.5 27.8L221.7 31.9C220.567 32.7333 219.35 33.3833 218.05 33.85C216.783 34.2833 215.417 34.5 213.95 34.5ZM201.95 10.75H219.85L219.8 15.2H201.85L201.95 10.75Z" fill="url(#paint0_linear_5_52)"/>
<defs>
<linearGradient id="paint0_linear_5_52" x1="112" y1="-32.5" x2="111.5" y2="43" gradientUnits="userSpaceOnUse">
<stop offset="0.614583" stop-color="#433D3D"/>
<stop offset="1" stop-color="#FBB904"/>
</linearGradient>
</defs>
</svg>
